<svg xmlns="http://www.w3.org/2000/svg" width="629" height="136" viewBox="0 0 629 136">
  <path d="M 293.00,36.00 L 293.00,100.00 L 308.00,100.00 L 308.00,56.00 L 309.00,53.00 L 316.00,47.00 L 327.00,47.00 L 334.00,51.00 L 333.00,73.00 L 336.00,83.00 L 340.00,90.00 L 348.00,98.00 L 354.00,101.00 L 363.00,103.00 L 378.00,101.00 L 389.00,96.00 L 396.00,90.00 L 401.00,90.00 L 408.00,97.00 L 419.00,102.00 L 432.00,102.00 L 443.00,96.00 L 447.00,96.00 L 448.00,100.00 L 463.00,100.00 L 463.00,36.00 L 449.00,36.00 L 449.00,40.00 L 444.00,41.00 L 439.00,37.00 L 432.00,34.00 L 416.00,35.00 L 408.00,39.00 L 402.00,45.00 L 396.00,58.00 L 391.00,57.00 L 391.00,51.00 L 386.00,41.00 L 381.00,37.00 L 373.00,34.00 L 361.00,34.00 L 351.00,37.00 L 347.00,40.00 L 341.00,40.00 L 328.00,34.00 L 318.00,34.00 L 311.00,39.00 L 307.00,39.00 L 306.00,36.00 Z M 395.00,66.00 L 395.00,72.00 L 397.00,79.00 L 396.00,84.00 L 392.00,84.00 L 390.00,81.00 L 387.00,81.00 L 382.00,85.00 L 373.00,89.00 L 362.00,89.00 L 357.00,86.00 L 358.00,81.00 L 369.00,81.00 L 375.00,79.00 L 382.00,75.00 L 390.00,65.00 Z M 424.00,47.00 L 434.00,47.00 L 439.00,49.00 L 446.00,57.00 L 448.00,63.00 L 448.00,73.00 L 446.00,79.00 L 439.00,87.00 L 435.00,89.00 L 424.00,89.00 L 418.00,86.00 L 413.00,80.00 L 411.00,75.00 L 411.00,61.00 L 412.00,58.00 L 420.00,49.00 Z M 375.00,53.00 L 376.00,62.00 L 370.00,69.00 L 362.00,72.00 L 350.00,72.00 L 349.00,71.00 L 348.00,62.00 L 350.00,56.00 L 354.00,51.00 L 362.00,47.00 L 367.00,47.00 L 370.00,48.00 Z M 469.00,49.00 L 477.00,49.00 L 478.00,50.00 L 478.00,86.00 L 482.00,95.00 L 485.00,98.00 L 491.00,101.00 L 509.00,102.00 L 515.00,100.00 L 519.00,97.00 L 524.00,97.00 L 535.00,102.00 L 550.00,102.00 L 557.00,100.00 L 565.00,95.00 L 572.00,86.00 L 574.00,81.00 L 579.00,82.00 L 579.00,100.00 L 594.00,100.00 L 594.00,57.00 L 595.00,54.00 L 602.00,47.00 L 612.00,47.00 L 615.00,49.00 L 618.00,49.00 L 623.00,40.00 L 623.00,38.00 L 614.00,34.00 L 605.00,34.00 L 597.00,39.00 L 593.00,39.00 L 592.00,36.00 L 579.00,36.00 L 579.00,54.00 L 574.00,55.00 L 567.00,43.00 L 559.00,37.00 L 550.00,34.00 L 536.00,34.00 L 529.00,36.00 L 523.00,39.00 L 515.00,47.00 L 510.00,59.00 L 510.00,77.00 L 512.00,81.00 L 512.00,85.00 L 508.00,89.00 L 498.00,89.00 L 495.00,87.00 L 493.00,83.00 L 493.00,50.00 L 494.00,49.00 L 503.00,49.00 L 505.00,41.00 L 505.00,36.00 L 491.00,36.00 L 490.00,35.00 L 490.00,30.00 L 493.00,24.00 L 493.00,12.00 L 478.00,12.00 L 478.00,27.00 L 477.00,31.00 L 473.00,35.00 L 469.00,36.00 Z M 538.00,47.00 L 548.00,47.00 L 552.00,49.00 L 556.00,53.00 L 560.00,61.00 L 560.00,75.00 L 556.00,83.00 L 548.00,89.00 L 535.00,88.00 L 529.00,83.00 L 525.00,74.00 L 526.00,59.00 L 530.00,52.00 Z M 5.00,48.00 L 5.00,63.00 L 9.00,62.00 L 19.00,62.00 L 20.00,63.00 L 21.00,81.00 L 24.00,92.00 L 29.00,99.00 L 32.00,101.00 L 40.00,101.00 L 47.00,97.00 L 54.00,89.00 L 68.00,69.00 L 72.00,69.00 L 73.00,70.00 L 73.00,76.00 L 67.00,99.00 L 76.00,103.00 L 81.00,102.00 L 86.00,82.00 L 88.00,80.00 L 93.00,81.00 L 96.00,88.00 L 102.00,95.00 L 108.00,99.00 L 118.00,102.00 L 126.00,102.00 L 138.00,99.00 L 150.00,93.00 L 158.00,87.00 L 163.00,87.00 L 164.00,88.00 L 171.00,87.00 L 180.00,80.00 L 197.00,55.00 L 202.00,54.00 L 204.00,57.00 L 204.00,63.00 L 205.00,64.00 L 205.00,78.00 L 190.00,85.00 L 181.00,91.00 L 172.00,99.00 L 166.00,109.00 L 165.00,117.00 L 167.00,122.00 L 172.00,127.00 L 180.00,130.00 L 193.00,130.00 L 202.00,126.00 L 209.00,119.00 L 214.00,110.00 L 218.00,97.00 L 218.00,92.00 L 221.00,88.00 L 232.00,87.00 L 239.00,95.00 L 244.00,98.00 L 250.00,100.00 L 261.00,101.00 L 262.00,100.00 L 268.00,100.00 L 279.00,95.00 L 287.00,86.00 L 287.00,83.00 L 274.00,78.00 L 272.00,82.00 L 267.00,86.00 L 261.00,88.00 L 256.00,88.00 L 251.00,86.00 L 245.00,80.00 L 242.00,72.00 L 243.00,57.00 L 247.00,50.00 L 255.00,45.00 L 265.00,46.00 L 271.00,52.00 L 272.00,57.00 L 287.00,57.00 L 287.00,52.00 L 283.00,43.00 L 277.00,37.00 L 271.00,34.00 L 263.00,32.00 L 254.00,32.00 L 246.00,34.00 L 240.00,37.00 L 233.00,44.00 L 229.00,51.00 L 227.00,58.00 L 227.00,72.00 L 226.00,73.00 L 221.00,73.00 L 220.00,72.00 L 219.00,58.00 L 216.00,45.00 L 213.00,39.00 L 207.00,34.00 L 199.00,34.00 L 195.00,36.00 L 186.00,45.00 L 172.00,66.00 L 167.00,67.00 L 166.00,66.00 L 166.00,61.00 L 168.00,51.00 L 172.00,40.00 L 171.00,35.00 L 163.00,32.00 L 159.00,32.00 L 155.00,43.00 L 154.00,50.00 L 149.00,51.00 L 147.00,49.00 L 145.00,43.00 L 136.00,35.00 L 129.00,33.00 L 119.00,33.00 L 103.00,39.00 L 95.00,47.00 L 91.00,55.00 L 86.00,55.00 L 81.00,49.00 L 76.00,47.00 L 68.00,48.00 L 57.00,58.00 L 41.00,81.00 L 37.00,81.00 L 35.00,76.00 L 34.00,58.00 L 36.00,56.00 L 51.00,49.00 L 61.00,42.00 L 69.00,34.00 L 74.00,24.00 L 74.00,17.00 L 70.00,10.00 L 60.00,5.00 L 46.00,5.00 L 36.00,10.00 L 29.00,18.00 L 23.00,32.00 L 21.00,45.00 L 18.00,47.00 Z M 199.00,100.00 L 200.00,105.00 L 198.00,109.00 L 192.00,115.00 L 184.00,116.00 L 182.00,114.00 L 182.00,110.00 L 187.00,105.00 L 194.00,100.00 Z M 151.00,67.00 L 151.00,76.00 L 141.00,83.00 L 126.00,89.00 L 122.00,89.00 L 116.00,86.00 L 117.00,81.00 L 130.00,79.00 L 138.00,75.00 L 146.00,66.00 Z M 132.00,52.00 L 133.00,61.00 L 127.00,68.00 L 120.00,71.00 L 107.00,71.00 L 105.00,69.00 L 105.00,61.00 L 107.00,55.00 L 114.00,48.00 L 116.00,47.00 L 126.00,47.00 Z M 57.00,21.00 L 57.00,25.00 L 51.00,31.00 L 44.00,36.00 L 39.00,35.00 L 39.00,30.00 L 45.00,22.00 L 49.00,20.00 L 56.00,20.00 Z " fill="#55d6e6" fill-rule="evenodd"/>
</svg>